<svg xmlns="http://www.w3.org/2000/svg" id="typo" viewBox="0 0 112.83 35.13"><path d="M6.32,8.48H.39A23.38,23.38,0,0,0,0,12.69,22.75,22.75,0,0,0,7.13,29.34v-20A.81.81,0,0,0,6.32,8.48Z" fill="#301b44"></path><path d="M27.6,0H3.76a22.68,22.68,0,0,0-3,6.54H8.59a.87.87,0,0,1,.86.86V31.26a21.11,21.11,0,0,0,8.29,3.51.87.87,0,0,0,.18-.5V7.4a.86.86,0,0,1,.86-.86H27.6a.86.86,0,0,0,.86-.86V.86A.86.86,0,0,0,27.6,0Z" fill="#301b44"></path><path d="M46.07,20.22H34.48a.86.86,0,0,0-.86.86v6.67a.86.86,0,0,0,.86.87h14a.86.86,0,0,1,.86.86v4.79a.86.86,0,0,1-.86.86H26a.85.85,0,0,1-.86-.86V.86A.86.86,0,0,1,26,0H48.54a.87.87,0,0,1,.86.86V5.68a.87.87,0,0,1-.86.86H34.48a.86.86,0,0,0-.86.86v5.68a.86.86,0,0,0,.86.87H46.07a.86.86,0,0,1,.87.86v4.55A.87.87,0,0,1,46.07,20.22Z" fill="#301b44"></path><path d="M61.08,10.11,65.82.48A.86.86,0,0,1,66.59,0h7.67A.87.87,0,0,1,75,1.29L66.15,17a.86.86,0,0,0,0,.85l9.11,16a.86.86,0,0,1-.75,1.29H66.76a.86.86,0,0,1-.78-.48l-4.9-9.86a.86.86,0,0,0-1.54,0l-4.9,9.86a.86.86,0,0,1-.78.48H46.13a.87.87,0,0,1-.75-1.29l9.09-16a.84.84,0,0,0,0-.84L45.64,1.28A.86.86,0,0,1,46.39,0H54a.88.88,0,0,1,.78.48l4.73,9.63A.86.86,0,0,0,61.08,10.11Z" fill="#301b44"></path><path d="M82.31,28.62h13a.86.86,0,0,1,.86.86v4.79a.86.86,0,0,1-.86.86H73.84a.86.86,0,0,1-.87-.86V.86A.87.87,0,0,1,73.84,0h6.74a.86.86,0,0,1,.86.86V27.75A.87.87,0,0,0,82.31,28.62Z" fill="#301b44"></path><path d="M109.51,20.22H97.91a.87.87,0,0,0-.86.86v6.67a.87.87,0,0,0,.86.87h14a.85.85,0,0,1,.86.86v4.79a.85.85,0,0,1-.86.86H89.44a.86.86,0,0,1-.86-.86V.86A.87.87,0,0,1,89.44,0H112a.86.86,0,0,1,.86.86V5.68a.86.86,0,0,1-.86.86H97.91a.87.87,0,0,0-.86.86v5.68a.87.87,0,0,0,.86.87h11.6a.86.86,0,0,1,.86.86v4.55A.87.87,0,0,1,109.51,20.22Z" fill="#301b44"></path></svg>